<svg id="Layer_1" data-name="Layer 1" xmlns="http://www.w3.org/2000/svg" viewBox="0 0 357 134"><defs><style>.cls-1{fill:#c3161c;}.cls-2{fill:#a6a8ab;}.cls-3{fill:#6d6e70;}</style></defs><title>Logo</title><path class="cls-1" d="M11.16,121.8s-31.88-76.12,40.4-98.28A243.31,243.31,0,0,0,107.68,6.75S123.05.06,134.54,24c0,0,3.2,6-9.31,11.34,0,0-24.73,13.59-54.53,18.33,0,0-49.14,6.23-54.51,46.85,0,0-2,10.48,1.5,20.14,0,0,.56,3.92-1.51,5.51,0,0-1,3.41-5-4.4"/><path class="cls-2" d="M97.72,5.17C96.14,4.81,95,4.63,95,4.63c-23.45-5.93-43.31,7.73-54.34,18a80.35,80.35,0,0,1,8.92-3.3A214.7,214.7,0,0,0,97.72,5.17"/><path class="cls-2" d="M19.84,104a45.4,45.4,0,0,0-.41,11c7.42,7.6,15.68-16,15.68-16C41.52,83.62,53.35,70,65.44,59,51,63,23.76,74.3,19.84,104"/><rect class="cls-1" x="69.88" y="74.83" width="4.53" height="32.05"/><polygon class="cls-1" points="110.04 99.29 89.66 74.83 81.65 74.83 81.65 106.88 86.18 106.88 86.18 80.17 86.12 77.71 86.23 76.93 89.73 81.17 92.78 84.82 111.29 106.88 119.33 106.88 119.33 74.83 114.8 74.83 114.8 101.73 114.86 104.19 114.75 104.97 112.16 101.82 110.04 99.29"/><polygon class="cls-1" points="152.86 89.32 131.1 89.32 131.1 77.38 153.45 77.38 153.45 74.83 126.57 74.83 126.57 106.88 131.1 106.88 131.1 91.86 152.86 91.86 152.86 89.32"/><rect class="cls-1" x="160.69" y="74.83" width="4.53" height="32.05"/><polygon class="cls-1" points="200.84 99.29 180.47 74.83 172.46 74.83 172.46 106.88 176.99 106.88 176.99 80.17 176.92 77.71 177.03 76.93 180.54 81.17 183.59 84.82 202.1 106.88 210.14 106.88 210.14 74.83 205.61 74.83 205.61 101.73 205.68 104.19 205.56 104.97 202.97 101.82 200.84 99.29"/><rect class="cls-1" x="217.38" y="74.83" width="4.53" height="32.05"/><polygon class="cls-1" points="243.69 106.88 248.22 106.88 248.22 77.72 262.65 77.72 262.65 74.83 229.14 74.83 229.14 77.72 243.69 77.72 243.69 106.88"/><rect class="cls-1" x="269.89" y="74.83" width="4.53" height="32.05"/><polygon class="cls-1" points="286.18 91.59 308.84 91.59 308.84 89.05 286.18 89.05 286.18 77.38 309.85 77.38 309.85 74.83 281.65 74.83 281.65 106.88 309.85 106.88 309.85 104.33 286.18 104.33 286.18 91.59"/><path class="cls-1" d="M347.56,90.66c-1.84-1-6.26-1.68-13.15-1.9-6-.21-9.57-.6-10.81-1.19s-2-2.28-2-5c0-2.44.83-4,2.46-4.77s5-1,10.33-1c4.55,0,7.37.36,8.62,1.11s1.85,2.44,1.9,5h4.49c-.05-3.52-1-5.87-2.9-7s-6.33-1.7-12.94-1.7-10.92.62-13.07,1.83-3.18,3.61-3.18,7.2c0,5.23,3.64,8,11.13,8.34l5,.19,5.23.19c3,.13,4.86.54,5.82,1.24S346,95.27,346,97.34c0,3.2-.7,5.14-2.14,5.9s-4.91,1.1-10.79,1.1c-5.13,0-8.24-.36-9.52-1.1s-2-2.62-2-5.67V97h-4.47c0,.36,0,1.18,0,1.18,0,3.48,1,5.81,3.05,6.93s6.35,1.74,12.72,1.74c7.34,0,12.13-.58,14.25-1.73s3.12-3.67,3.12-7.55c0-3.59-.91-5.93-2.7-6.94"/><path class="cls-3" d="M77.82,131.49a11.48,11.48,0,0,0,3.5-3.68A16.06,16.06,0,0,1,80,123.48l-.21.42-1.33-.34v2.6a.18.18,0,0,1-.2.2H74.68l-.53.84h5.18v1.26h-2a10.9,10.9,0,0,1-2,2.22l2.37.79-.91,1.24-3-1-1.68.58a15.38,15.38,0,0,1-3,.42l-.4-1.46c.53,0,1.53-.11,2.93-.27l-1.49-.55-.2-.94,1.17-1H68.7V127.2h3.65l.6-.84H69.68c-.1,0-.16-.07-.16-.2v-3.1c0-.12.06-.18.16-.18h3.58v-.69H70c-.13,0-.2-.08-.2-.22v-2.06H68.7v-1.26h1.06v-2.08a.18.18,0,0,1,.2-.2h3.3v-.75h1.47v.75h3.21a.18.18,0,0,1,.2.2v2.08h1.12v1.26H78.14V122c0,.14-.07.22-.2.22H74.73v.69h3.54c.2,0,.2.09.2.33a17.11,17.11,0,0,0,1.63-7.33h1.47L81.43,118h4.15v1.48h-.94a19.6,19.6,0,0,1-1.7,8.41,25.8,25.8,0,0,0,2.75,4l-1.38.78a22.56,22.56,0,0,1-2.21-3.34,13.58,13.58,0,0,1-3.1,3.21Zm-4.56-7.41H71q-.09,0-.06.06v1l.06.07h2.28Zm0-5.43v-1h-2c-.06,0-.07,0-.06.05v1Zm0,2.28v-1h-2v1l.06.07Zm.46,9.23a7.85,7.85,0,0,0,1.89-1.7h-2.5l-1.09,1s-.06,0-.06.08,0,0,.08.05Zm1-12.53v1h1.94v-1l-.08-.05Zm0,2.28v1h1.86l.08-.07v-1ZM77,124.08H74.73v1.08H77l.07-.07v-1Zm4.23-4.63a7.25,7.25,0,0,0-.17,1.59,16.81,16.81,0,0,0,1,5.08,18.46,18.46,0,0,0,1.06-6.67Z"/><path class="cls-3" d="M126.54,116.06a28.23,28.23,0,0,1-1.41,4.18v12.29h-1.55V123l-.78,1-1.42-.71a18.41,18.41,0,0,0,3.66-7.65Zm6.63,14.48a66.27,66.27,0,0,0,2.1-9.85l1.5.35c-.59,3.5-1.26,6.69-2,9.5h3.69v1.55H125.68v-1.55Zm-2.07-12.75v-2.1h1.62v2.1h5.45v1.55H126.25v-1.55Zm-2.65,11.8a42.9,42.9,0,0,0-1.51-8.39l1.53-.31a37.33,37.33,0,0,1,1.51,8.47Z"/><path class="cls-3" d="M177.41,126.31v-3.16H175v-1.47h2.43v-3.05a8.09,8.09,0,0,1-2.08,2l-1-1.18a7.68,7.68,0,0,0,2.92-3.83l1.45.51-.38.87h12.22v1.48h-1.8v3.16h2.16v1.47h-2.16v3.16h1.95v1.47H175v-1.47Zm.57,2.79a11.13,11.13,0,0,1-2.65,3.57,4.5,4.5,0,0,0-1-1.13,8.09,8.09,0,0,0,2.23-3.15Zm2.62-10.58h-1.71v3.16h1.71Zm-1.71,7.79h1.71v-3.16h-1.71Zm1.16,5.92a19.19,19.19,0,0,0-.16-3.48v0h1.48l.14,3.58Zm3.83-13.71h-1.8v3.16h1.8Zm-1.8,7.79h1.8v-3.16h-1.8Zm2.48,6.07a24.69,24.69,0,0,0-.88-3.52l1.42-.33a27.55,27.55,0,0,1,.9,3.63Zm2.68-13.86h-1.88v3.16h1.88Zm-1.88,7.79h1.88v-3.16h-1.88Zm4.3,6.16a21.42,21.42,0,0,0-1.95-3.53l1.26-.75a18,18,0,0,1,2,3.61Z"/><path class="cls-3" d="M231.93,121.64a1.09,1.09,0,0,0-.07.33.38.38,0,0,0,.09.25,7.09,7.09,0,0,1,1.6,4,2.38,2.38,0,0,1-2.53,2.57,5.82,5.82,0,0,1-1.74-.31v3.92h-1.55v-16l.06-.16.16-.06h4.44l1.07.71Zm-.38-3.54a.9.9,0,0,0,0-.16c0-.2-.18-.2-.33-.2h-1.84l-.09,0,0,.1v9a2.74,2.74,0,0,0,1.48.49,1.08,1.08,0,0,0,1-.4,1.73,1.73,0,0,0,.23-.84c0-.86-.6-2.15-1.75-3.87V122Zm11.94,8.1a20.85,20.85,0,0,1-3.08,2.31,11.36,11.36,0,0,0,3.64,2.92l-1.2,1.15a11.92,11.92,0,0,1-5.82-8.33h-1.35v6.27l2.67-.67.34,1.51a30.67,30.67,0,0,1-6.33,1.24l-.27-1.55,2-.24V116.68a.41.41,0,0,1,.47-.45h7.8a.42.42,0,0,1,.48.45v7.08a.43.43,0,0,1-.49.49h-3.82a11.36,11.36,0,0,0,1,2.94,22.32,22.32,0,0,0,2.95-2.23Zm-7.81-6.69h5.66v-1.37c0-.24-.13-.37-.4-.37h-4.87c-.26,0-.39.13-.39.37Zm5.66,1.55h-5.66v1.64h5.4c.17,0,.26-.07.26-.24Z"/><path class="cls-3" d="M283.25,129.66H280v-1.4h3.27v-1.07h-2.71c-.13,0-.2-.08-.2-.22v-7.21c0-.13.07-.18.2-.18h2.71v-1.17H280.2V117h3.05v-1.32h1.48V117h3v1.4h-3v1.17h2.65c.14,0,.22,0,.22.18V127a.2.2,0,0,1-.22.22h-2.65v1.07H288v1.4h-3.25v2.87h-1.48Zm0-7V121h-1.38c-.05,0-.07,0-.05.06v1.66Zm0,3.06v-1.64h-1.43v1.59l.05.05Zm1.48-4.78v1.72h1.37V121l-.05-.06Zm0,3.14v1.64h1.32l.05-.05v-1.59Zm10.64,8.35a23,23,0,0,1-3.18-6.66,12.91,12.91,0,0,1-4,6.66l-1.28-1c2.94-2.13,4.45-5.87,4.5-11.2v-1.49h-.78a12.74,12.74,0,0,1-1.28,4.19l-1.47-.34a15,15,0,0,0,1.53-6.88h1.5l-.12,1.61h4.87l.92.51a41.72,41.72,0,0,1-.9,6.25l-1.4-.22a24.32,24.32,0,0,0,1-4.72,2.19,2.19,0,0,0,0-.33l-.17-.07h-2.17v1.49l0,1.39a17.77,17.77,0,0,0,3.91,10.08Z"/><path class="cls-3" d="M334.89,129.81v2.63h-1.34v-8.57h-.88V121c0-.16.07-.24.22-.24h.64v-4.3c0-.29.13-.44.42-.44h4.45a.39.39,0,0,1,.45.44v4.3h0l1.17.57a10.8,10.8,0,0,1-.62,2.64l-.58-.18v7.35a1.46,1.46,0,0,1-.62,1.26,1.68,1.68,0,0,1-.95.2,7.27,7.27,0,0,1-1.27-.13l0-1.47a3.54,3.54,0,0,0,1,.27.69.69,0,0,0,.53-.66v-.82Zm-1-6.33h4.34l.31-1.24c0-.13-.06-.2-.18-.2h-4.34c-.1,0-.13,0-.13.13Zm.86-2.7h.73v-2.37c0-.16.05-.27.25-.27h1.81v-.73c0-.11-.08-.16-.2-.16H335c-.13,0-.18,0-.18.16Zm.1,5.27h2.65v-1.18c0-.08,0-.11-.13-.11H335c-.08,0-.12,0-.12.11Zm0,2.5h2.65v-1.24h-2.65Zm1.74-7.77h.95v-1.51h-.82c-.1,0-.15,0-.13.15Zm6,10.32-.22-.82-.24-.69H341a.17.17,0,0,1-.19-.18v-3.32c0-.13.06-.18.19-.18h7.65c.13,0,.19,0,.19.18v3.32a.17.17,0,0,1-.19.18h-1.11L347,131.1h2.5v1.28h-9.7V131.1Zm3.85-14.27h2.26a.14.14,0,0,1,.16.16v5.76c0,.13-.05.19-.16.19h-8.34c-.1,0-.16-.06-.16-.19V117a.14.14,0,0,1,.16-.16h2.32v-1.21H344v1.21h1.22v-1.21h1.26Zm-6.21,6.94h9V125h-9Zm2.45-4.52V118h-1.17s-.07,0,0,.06v1.16Zm0,2.5v-1.31h-1.22v1.24l0,.07Zm4.78,5.44H342.1l-.06,0v1l.06.07h5.38s.07,0,.07-.07v-1ZM344,131.1h1.68l.41-1.18.1-.33h-2.63ZM345.2,118H344v1.22h1.22Zm0,2.41H344v1.31h1.22Zm1.26-2.41v1.22h1.16v-1.16l-.07-.06Zm0,2.41v1.31h1.09l.07-.07v-1.24Z"/></svg>