<svg id="Layer_1" data-name="Layer 1" xmlns="http://www.w3.org/2000/svg" viewBox="0 0 357 134"><defs><style>.cls-1{fill:#c3161c;}.cls-2{fill:#a6a8ab;}</style></defs><title>Logo</title><path class="cls-1" d="M11.16,121.8s-31.88-76.12,40.4-98.28A243.31,243.31,0,0,0,107.68,6.75S123.05.06,134.54,24c0,0,3.2,6-9.31,11.34,0,0-24.73,13.59-54.53,18.33,0,0-49.14,6.23-54.51,46.85,0,0-2,10.48,1.5,20.14,0,0,.56,3.92-1.51,5.51,0,0-1,3.41-5-4.4"/><path class="cls-2" d="M97.72,5.17C96.14,4.81,95,4.63,95,4.63c-23.45-5.93-43.31,7.73-54.34,18a80.35,80.35,0,0,1,8.92-3.3A214.7,214.7,0,0,0,97.72,5.17"/><path class="cls-2" d="M19.84,104a45.4,45.4,0,0,0-.41,11c7.42,7.6,15.68-16,15.68-16C41.52,83.62,53.35,70,65.44,59,51,63,23.76,74.3,19.84,104"/><rect class="cls-1" x="69.88" y="74.83" width="4.53" height="32.05"/><polygon class="cls-1" points="110.04 99.29 89.66 74.83 81.65 74.83 81.65 106.88 86.18 106.88 86.18 80.17 86.12 77.71 86.23 76.93 89.73 81.17 92.78 84.82 111.29 106.88 119.33 106.88 119.33 74.83 114.8 74.83 114.8 101.73 114.86 104.19 114.75 104.97 112.16 101.82 110.04 99.29"/><polygon class="cls-1" points="152.86 89.32 131.1 89.32 131.1 77.38 153.45 77.38 153.45 74.83 126.57 74.83 126.57 106.88 131.1 106.88 131.1 91.86 152.86 91.86 152.86 89.32"/><rect class="cls-1" x="160.69" y="74.83" width="4.53" height="32.05"/><polygon class="cls-1" points="200.84 99.29 180.47 74.83 172.46 74.83 172.46 106.88 176.99 106.88 176.99 80.17 176.92 77.71 177.03 76.93 180.54 81.17 183.59 84.82 202.1 106.88 210.14 106.88 210.14 74.83 205.61 74.83 205.61 101.73 205.68 104.19 205.56 104.97 202.97 101.82 200.84 99.29"/><rect class="cls-1" x="217.38" y="74.83" width="4.53" height="32.05"/><polygon class="cls-1" points="243.69 106.88 248.22 106.88 248.22 77.72 262.65 77.72 262.65 74.83 229.14 74.83 229.14 77.72 243.69 77.72 243.69 106.88"/><rect class="cls-1" x="269.89" y="74.83" width="4.53" height="32.05"/><polygon class="cls-1" points="286.18 91.59 308.84 91.59 308.84 89.05 286.18 89.05 286.18 77.38 309.85 77.38 309.85 74.83 281.65 74.83 281.65 106.88 309.85 106.88 309.85 104.33 286.18 104.33 286.18 91.59"/><path class="cls-1" d="M347.56,90.66c-1.84-1-6.26-1.68-13.15-1.9-6-.21-9.57-.6-10.81-1.19s-2-2.28-2-5c0-2.44.83-4,2.46-4.77s5-1,10.33-1c4.55,0,7.37.36,8.62,1.11s1.85,2.44,1.9,5h4.49c-.05-3.52-1-5.87-2.9-7s-6.33-1.7-12.94-1.7-10.92.62-13.07,1.83-3.18,3.61-3.18,7.2c0,5.23,3.64,8,11.13,8.34l5,.19,5.23.19c3,.13,4.86.54,5.82,1.24S346,95.27,346,97.34c0,3.2-.7,5.14-2.14,5.9s-4.91,1.1-10.79,1.1c-5.13,0-8.24-.36-9.52-1.1s-2-2.62-2-5.67V97h-4.47c0,.36,0,1.18,0,1.18,0,3.48,1,5.81,3.05,6.93s6.35,1.74,12.72,1.74c7.34,0,12.13-.58,14.25-1.73s3.12-3.67,3.12-7.55c0-3.59-.91-5.93-2.7-6.94"/></svg>