<svg id="Layer_1" data-name="Layer 1" xmlns="http://www.w3.org/2000/svg" viewBox="0 0 300 300"><defs><style>.cls-1{fill:#ffa39b;}.cls-2{fill:#e13934;}.cls-3{fill:none;stroke:#d6d6d6;stroke-miterlimit:10;stroke-width:7.51px;}</style></defs><title>Product_fetures</title><path class="cls-1" d="M216.92,141.43h-.46a7.77,7.77,0,0,1-7.39-5.52,62.85,62.85,0,0,0-4.29-10.32,7.7,7.7,0,0,1,1.35-9l.35-.34a7.71,7.71,0,0,0,0-10.89l-7.71-7.71a7.71,7.71,0,0,0-10.9,0l-.34.34a7.69,7.69,0,0,1-9,1.36A60.91,60.91,0,0,0,168.17,95a7.78,7.78,0,0,1-5.51-7.39v-.46a7.71,7.71,0,0,0-7.7-7.71h-10.9a7.71,7.71,0,0,0-7.71,7.71v.46A7.78,7.78,0,0,1,130.84,95a61.26,61.26,0,0,0-10.33,4.29,7.69,7.69,0,0,1-9-1.36l-.34-.34a7.7,7.7,0,0,0-10.89,0l-7.71,7.71a7.7,7.7,0,0,0,0,10.89l.34.34a7.71,7.71,0,0,1,1.36,9,62,62,0,0,0-4.3,10.32,7.76,7.76,0,0,1-7.38,5.52h-.47a7.7,7.7,0,0,0-7.7,7.7V160a7.7,7.7,0,0,0,7.7,7.7h.47a7.76,7.76,0,0,1,7.38,5.52,62,62,0,0,0,4.3,10.32,7.71,7.71,0,0,1-1.36,9l-.34.34a7.7,7.7,0,0,0,0,10.89l7.71,7.71a7.7,7.7,0,0,0,10.89,0l.34-.34a7.69,7.69,0,0,1,9-1.36,62.09,62.09,0,0,0,10.33,4.29,7.78,7.78,0,0,1,5.51,7.39V222a7.71,7.71,0,0,0,7.71,7.71H155a7.71,7.71,0,0,0,7.7-7.71v-.46a7.78,7.78,0,0,1,5.51-7.39,61.74,61.74,0,0,0,10.33-4.29,7.69,7.69,0,0,1,9,1.36l.34.34a7.71,7.71,0,0,0,10.9,0l7.71-7.71a7.71,7.71,0,0,0,0-10.89l-.35-.34a7.7,7.7,0,0,1-1.35-9,62.85,62.85,0,0,0,4.29-10.32,7.77,7.77,0,0,1,7.39-5.52h.46a7.7,7.7,0,0,0,7.7-7.7v-10.9A7.7,7.7,0,0,0,216.92,141.43Zm-67.41,61.19a48,48,0,1,1,48-48A48,48,0,0,1,149.51,202.62Z"/><polygon class="cls-2" points="135 175.27 135 133.88 171.05 155.15 135 175.27"/><path class="cls-3" d="M139.19,258A102.41,102.41,0,0,1,36.79,155.58"/><path class="cls-3" d="M41.17,125.86a102.43,102.43,0,0,1,98-72.69"/><polyline class="cls-3" points="129.75 37.58 145.34 53.17 129.75 68.76"/><polyline class="cls-3" points="52.6 165.25 37.02 149.66 21.43 165.25"/><path class="cls-3" d="M159.82,52.3A102.41,102.41,0,0,1,262.23,154.71"/><path class="cls-3" d="M257.85,184.44a102.46,102.46,0,0,1-98,72.68"/><polyline class="cls-3" points="169.26 272.71 153.67 257.12 169.26 241.53"/><polyline class="cls-3" points="246.41 145.04 262 160.63 277.59 145.04"/></svg>