<svg id="Layer_1" data-name="Layer 1" xmlns="http://www.w3.org/2000/svg" viewBox="0 0 300 300"><defs><style>.cls-1,.cls-6{fill:#fff;}.cls-1,.cls-2,.cls-3{stroke:#ffa39b;}.cls-1,.cls-2,.cls-3,.cls-4{stroke-miterlimit:10;}.cls-1,.cls-2{stroke-width:4px;}.cls-2,.cls-3,.cls-4{fill:none;}.cls-3{stroke-width:2px;}.cls-4{stroke:#e13934;stroke-width:3.96px;}.cls-5{fill:#d6d6d6;}</style></defs><title>Product_fetures</title><rect class="cls-1" x="113.78" y="55.33" width="156.22" height="117.81"/><line class="cls-2" x1="113.78" y1="70.24" x2="270" y2="70.24"/><rect class="cls-3" x="121.2" y="60.57" width="4.67" height="4.67"/><rect class="cls-3" x="131.21" y="60.57" width="4.67" height="4.67"/><rect class="cls-3" x="141.21" y="60.57" width="4.67" height="4.67"/><rect class="cls-1" x="98.58" y="70.53" width="156.22" height="117.81"/><line class="cls-2" x1="98.58" y1="85.44" x2="254.8" y2="85.44"/><rect class="cls-3" x="106.01" y="75.77" width="4.67" height="4.67"/><rect class="cls-3" x="116.01" y="75.77" width="4.67" height="4.67"/><rect class="cls-3" x="126.01" y="75.77" width="4.67" height="4.67"/><rect class="cls-1" x="83.63" y="85.49" width="156.22" height="117.81"/><line class="cls-2" x1="83.63" y1="100.39" x2="239.84" y2="100.39"/><rect class="cls-3" x="91.05" y="90.73" width="4.67" height="4.67"/><rect class="cls-3" x="101.05" y="90.73" width="4.67" height="4.67"/><rect class="cls-3" x="111.05" y="90.73" width="4.67" height="4.67"/><circle class="cls-4" cx="166.44" cy="149.76" r="37.33"/><ellipse class="cls-4" cx="166.2" cy="149.76" rx="20.69" ry="37.33"/><line class="cls-4" x1="133.91" y1="131.44" x2="198.57" y2="131.44"/><line class="cls-4" x1="138.51" y1="169.14" x2="198.57" y2="169.14"/><line class="cls-4" x1="129.1" y1="150.29" x2="203.77" y2="150.29"/><line class="cls-4" x1="166.44" y1="112.95" x2="166.44" y2="187.62"/><path class="cls-5" d="M44.37,253.09a22.31,22.31,0,1,1,3.35-44.33l2.61.39-.48-2.6a27.18,27.18,0,0,1-.44-4.82,26.44,26.44,0,0,1,33-25.63l2.66.67-.32-2.72a25.48,25.48,0,0,1-.19-3.09,26.45,26.45,0,0,1,52.31-5.6l.37,1.71,1.73-.23a37.92,37.92,0,0,1,5.25-.37,39,39,0,0,1,38.91,38.91,39.61,39.61,0,0,1-.93,8.44l-.53,2.4,2.45-.11.38,0,.45,0a18.51,18.51,0,0,1,0,37Z"/><path class="cls-6" d="M111,146.39a24.69,24.69,0,0,1,24,19.37l.73,3.41,3.46-.47a37.51,37.51,0,0,1,5-.34,37.06,37.06,0,0,1,37,37,37.62,37.62,0,0,1-.88,8l-1.06,4.8,4.91-.22.42,0,.32,0a16.63,16.63,0,0,1,0,33.25H44.37a20.42,20.42,0,0,1,0-40.84,21.28,21.28,0,0,1,3.07.26l5.23.79-1-5.2a24.53,24.53,0,0,1,24.15-29.05,25,25,0,0,1,6.1.76l5.31,1.36-.64-5.45a26.08,26.08,0,0,1-.17-2.87A24.6,24.6,0,0,1,111,146.39m0-3.77A28.34,28.34,0,0,0,82.69,171a27.88,27.88,0,0,0,.2,3.31A28.33,28.33,0,0,0,48,206.9,24.17,24.17,0,1,0,44.37,255H185a20.4,20.4,0,0,0,0-40.79c-.31,0-.61,0-.91,0a40.8,40.8,0,0,0-39.82-49.64,39.9,39.9,0,0,0-5.5.38A28.35,28.35,0,0,0,111,142.62Z"/></svg>