<svg id="Layer_1" data-name="Layer 1" xmlns="http://www.w3.org/2000/svg" viewBox="0 0 300 300"><defs><style>.cls-1{fill:#ffa39b;}.cls-2{fill:#d6d6d6;}.cls-3{fill:none;stroke:#e13934;stroke-miterlimit:10;stroke-width:4px;}.cls-4{fill:#e13934;}</style></defs><title>Product_materials</title><path class="cls-1" d="M216.93,180.7h-.42a7,7,0,0,1-6.68-5,56.37,56.37,0,0,0-3.88-9.34,7,7,0,0,1,1.22-8.17l.31-.31a7,7,0,0,0,0-9.85l-7-7a7,7,0,0,0-9.85,0l-.31.31a7,7,0,0,1-8.16,1.23,55.53,55.53,0,0,0-9.34-3.88,7,7,0,0,1-5-6.68v-.42a7,7,0,0,0-7-7H151a7,7,0,0,0-7,7v.42a7,7,0,0,1-5,6.68,55.53,55.53,0,0,0-9.34,3.88,7,7,0,0,1-8.16-1.23l-.31-.31a7,7,0,0,0-9.85,0l-7,7a7,7,0,0,0,0,9.85l.3.31a7,7,0,0,1,1.23,8.17,56,56,0,0,0-3.88,9.34,7,7,0,0,1-6.68,5H95a7,7,0,0,0-7,7v9.85a7,7,0,0,0,7,7h.42a7,7,0,0,1,6.68,5,56.37,56.37,0,0,0,3.88,9.34,7,7,0,0,1-1.23,8.17l-.3.31a7,7,0,0,0,0,9.85l7,7a7,7,0,0,0,9.85,0l.31-.31a7,7,0,0,1,8.16-1.23,55.53,55.53,0,0,0,9.34,3.88,7,7,0,0,1,5,6.68v.42a7,7,0,0,0,7,7h9.86a7,7,0,0,0,7-7v-.42a7,7,0,0,1,5-6.68,55.53,55.53,0,0,0,9.34-3.88,7,7,0,0,1,8.16,1.23l.31.31a7,7,0,0,0,9.85,0l7-7a7,7,0,0,0,0-9.85l-.31-.31a7,7,0,0,1-1.22-8.17,56.37,56.37,0,0,0,3.88-9.34,7,7,0,0,1,6.68-5h.42a7,7,0,0,0,7-7v-9.85A7,7,0,0,0,216.93,180.7ZM156,236a43.44,43.44,0,1,1,43.44-43.44A43.44,43.44,0,0,1,156,236Z"/><path class="cls-1" d="M91.54,209.76l-.23.08a4.1,4.1,0,0,1-4.63-1.46,33.08,33.08,0,0,0-3.94-4.4,4.06,4.06,0,0,1-.9-4.73L82,199a4.07,4.07,0,0,0-1.89-5.43l-5.18-2.49A4.06,4.06,0,0,0,69.45,193l-.11.23a4.05,4.05,0,0,1-4.26,2.25,33,33,0,0,0-5.89-.34,4.09,4.09,0,0,1-4-2.72l-.08-.23a4.06,4.06,0,0,0-5.18-2.49l-5.43,1.9A4.05,4.05,0,0,0,42,196.76l.08.23a4.11,4.11,0,0,1-1.46,4.64,33.08,33.08,0,0,0-4.4,3.94,4,4,0,0,1-4.73.89l-.23-.11a4.08,4.08,0,0,0-5.43,1.9l-2.49,5.18a4.07,4.07,0,0,0,1.89,5.43l.23.11a4,4,0,0,1,2.25,4.26,33.9,33.9,0,0,0-.34,5.89,4.09,4.09,0,0,1-2.72,4l-.23.08a4.07,4.07,0,0,0-2.49,5.18l1.9,5.43A4.06,4.06,0,0,0,29,246.33l.24-.08a4.1,4.1,0,0,1,4.63,1.46,33,33,0,0,0,3.94,4.39,4.06,4.06,0,0,1,.89,4.74l-.11.23a4.06,4.06,0,0,0,1.9,5.42l5.18,2.5a4.07,4.07,0,0,0,5.43-1.9l.11-.23a4.07,4.07,0,0,1,4.26-2.25,33,33,0,0,0,5.89.35,4.08,4.08,0,0,1,4,2.71l.08.23a4.07,4.07,0,0,0,5.18,2.5l5.43-1.9a4.06,4.06,0,0,0,2.49-5.18l-.08-.23a4.09,4.09,0,0,1,1.46-4.63,33.71,33.71,0,0,0,4.4-3.94,4.06,4.06,0,0,1,4.73-.9l.23.11a4.05,4.05,0,0,0,5.42-1.89l2.5-5.18a4.06,4.06,0,0,0-1.9-5.43l-.22-.11a4,4,0,0,1-2.25-4.26,34,34,0,0,0,.34-5.89,4.09,4.09,0,0,1,2.71-4l.24-.08a4.07,4.07,0,0,0,2.49-5.18l-1.9-5.43A4.06,4.06,0,0,0,91.54,209.76ZM68.63,252a25.35,25.35,0,1,1,15.56-32.29A25.36,25.36,0,0,1,68.63,252Z"/><path class="cls-1" d="M263.87,230.5l-.16-.06a2.73,2.73,0,0,1-1.74-2.76,22.71,22.71,0,0,0-.11-4,2.73,2.73,0,0,1,1.6-2.82l.15-.07a2.74,2.74,0,0,0,1.39-3.61l-1.57-3.53a2.75,2.75,0,0,0-3.61-1.38l-.16.07a2.72,2.72,0,0,1-3.16-.7,21.23,21.23,0,0,0-2.87-2.73,2.76,2.76,0,0,1-.89-3.15l.06-.15a2.73,2.73,0,0,0-1.57-3.53l-3.61-1.38a2.72,2.72,0,0,0-3.52,1.57l-.06.15a2.78,2.78,0,0,1-2.77,1.75,21.8,21.8,0,0,0-4,.1,2.72,2.72,0,0,1-2.82-1.59l-.07-.16a2.71,2.71,0,0,0-3.6-1.38l-3.53,1.57a2.73,2.73,0,0,0-1.39,3.6l.07.16a2.72,2.72,0,0,1-.69,3.16,22,22,0,0,0-2.74,2.88,2.74,2.74,0,0,1-3.14.88l-.16-.06a2.73,2.73,0,0,0-3.52,1.57l-1.39,3.61a2.73,2.73,0,0,0,1.57,3.53l.16.06a2.75,2.75,0,0,1,1.74,2.76,21.91,21.91,0,0,0,.11,4,2.74,2.74,0,0,1-1.6,2.81l-.15.07a2.74,2.74,0,0,0-1.39,3.61l1.57,3.53a2.74,2.74,0,0,0,3.61,1.38l.16-.07a2.74,2.74,0,0,1,3.16.7,21.23,21.23,0,0,0,2.87,2.73,2.76,2.76,0,0,1,.89,3.15l-.06.15a2.73,2.73,0,0,0,1.57,3.53l3.61,1.38a2.72,2.72,0,0,0,3.52-1.57l.06-.15a2.76,2.76,0,0,1,2.77-1.74,22.74,22.74,0,0,0,4-.11,2.73,2.73,0,0,1,2.82,1.59l.07.16a2.71,2.71,0,0,0,3.6,1.38l3.53-1.57a2.73,2.73,0,0,0,1.39-3.6l-.07-.16a2.72,2.72,0,0,1,.69-3.16,22.56,22.56,0,0,0,2.74-2.87,2.75,2.75,0,0,1,3.14-.89l.15.06a2.73,2.73,0,0,0,3.53-1.57l1.39-3.61A2.73,2.73,0,0,0,263.87,230.5Zm-30.09,11.69a17,17,0,1,1,22-9.8A17,17,0,0,1,233.78,242.19Z"/><path class="cls-2" d="M112.78,122.56V88.86a5,5,0,0,0-3.45-4.77L99.92,81a5,5,0,0,0-5.64,1.81l-5.59,7.68a5,5,0,0,1-8.12,0L75,82.84a5,5,0,0,0-5.71-1.79l-11,3.84a5,5,0,0,0-3.37,4.74v38.85a5.07,5.07,0,0,0,1,3.06l6.24,8.11a5.07,5.07,0,0,1,1,3.06v22a5,5,0,0,0,5,5H78.9A79.58,79.58,0,0,1,112.78,122.56Z"/><path class="cls-2" d="M83.85,73.37A18.94,18.94,0,1,0,64.91,54.43,18.94,18.94,0,0,0,83.85,73.37Z"/><path class="cls-2" d="M253.65,84.89l-11-3.84a5,5,0,0,0-5.71,1.79l-5.56,7.63a5,5,0,0,1-8.13,0l-5.58-7.68A5,5,0,0,0,212,81l-9.41,3.11a5,5,0,0,0-3.45,4.77v33.7A79.57,79.57,0,0,1,233,169.73h10.65a5,5,0,0,0,5-5v-22a5,5,0,0,1,1-3.06l6.24-8.11a5.07,5.07,0,0,0,1-3.06V89.63A5,5,0,0,0,253.65,84.89Z"/><circle class="cls-2" cx="228.09" cy="54.43" r="18.93"/><path class="cls-2" d="M184.9,115.24V89.63a5,5,0,0,0-3.37-4.74l-11-3.84a5,5,0,0,0-5.72,1.79l-5.55,7.63a5,5,0,0,1-8.13,0l-5.58-7.68A5,5,0,0,0,139.9,81l-9.41,3.11A5,5,0,0,0,127,88.86v26.38a79.51,79.51,0,0,1,57.86,0Z"/><path class="cls-2" d="M156,73.37A18.94,18.94,0,1,0,137,54.43,18.93,18.93,0,0,0,156,73.37Z"/><polyline class="cls-3" points="229.97 227.04 236.97 234.04 249.61 220.4"/><path class="cls-4" d="M123.58,183.94a9.92,9.92,0,0,1,.8-4.09,8.8,8.8,0,0,1,2.15-3,9.28,9.28,0,0,1,2.93-1.72,9.58,9.58,0,0,1,6.62,0,10,10,0,0,1,3,1.72,9.11,9.11,0,0,1,2.1,3,9.92,9.92,0,0,1,.8,4.09v1.93h-5.48v-1.93a3.64,3.64,0,0,0-1.1-2.93,4.09,4.09,0,0,0-5.22,0,3.64,3.64,0,0,0-1.1,2.93v20.21a3.66,3.66,0,0,0,1.1,2.93,4.09,4.09,0,0,0,5.22,0,3.66,3.66,0,0,0,1.1-2.93V197h-4.36v-4.84H142v12a9.83,9.83,0,0,1-.8,4.14,8.63,8.63,0,0,1-2.1,2.85,9.16,9.16,0,0,1-3,1.77,9.58,9.58,0,0,1-6.62,0,8.55,8.55,0,0,1-2.93-1.77,8.35,8.35,0,0,1-2.15-2.85,9.83,9.83,0,0,1-.8-4.14Z"/><path class="cls-4" d="M146.8,213.18V174.9H155a12,12,0,0,1,4,.6,7.58,7.58,0,0,1,3.12,2.09,8.3,8.3,0,0,1,1.94,3.52,22.08,22.08,0,0,1,.53,5.46,26.73,26.73,0,0,1-.29,4.35,9.23,9.23,0,0,1-1.26,3.34,8.13,8.13,0,0,1-3,2.93,10.16,10.16,0,0,1-4.95,1.05h-2.8v14.94Zm5.48-33.11v13h2.64a5.63,5.63,0,0,0,2.58-.49,3,3,0,0,0,1.34-1.34,4.81,4.81,0,0,0,.51-2c.06-.79.08-1.67.08-2.64s0-1.74-.05-2.55a5.7,5.7,0,0,0-.48-2.12,3.08,3.08,0,0,0-1.29-1.4,5.19,5.19,0,0,0-2.48-.48Z"/><path class="cls-4" d="M186.42,174.9v29.68a8.8,8.8,0,0,1-.67,3.47,9.08,9.08,0,0,1-1.91,2.82A9,9,0,0,1,181,212.8a8.47,8.47,0,0,1-3.44.7,8.26,8.26,0,0,1-3.41-.7,9.25,9.25,0,0,1-4.76-4.75,8.47,8.47,0,0,1-.7-3.47V174.9h5.48V204a4.12,4.12,0,0,0,1,3,3.5,3.5,0,0,0,4.84,0,4.12,4.12,0,0,0,1-3V174.9Z"/><path class="cls-4" d="M45.83,243.37l6.94-31.08h3.72l6.94,31.08H59l-1.31-6.67H51.6l-1.31,6.67Zm11-10.87-2.18-11.26h-.09L52.38,232.5Z"/><path class="cls-4" d="M65.74,243.37V212.29h4.45v31.08Z"/></svg>