<?xml version="1.0" encoding="utf-8"?>
<!-- Generator: Adobe Illustrator 22.0.1, SVG Export Plug-In . SVG Version: 6.00 Build 0)  -->
<svg version="1.1" id="Layer_1" xmlns="http://www.w3.org/2000/svg" xmlns:xlink="http://www.w3.org/1999/xlink" x="0px" y="0px"
	 viewBox="0 0 300 300" style="enable-background:new 0 0 300 300;" xml:space="preserve">
<style type="text/css">
	.st0{clip-path:url(#SVGID_4_);}
	.st1{clip-path:url(#SVGID_8_);}
	.st2{fill:#FFFFFF;stroke:#FFA39B;stroke-width:4.0008;stroke-miterlimit:10;}
	.st3{fill:none;stroke:#FFA39B;stroke-width:4.0008;stroke-miterlimit:10;}
	.st4{fill:none;stroke:#FFA39B;stroke-width:2.0004;stroke-miterlimit:10;}
	.st5{fill:none;stroke:#E13934;stroke-width:3.9642;stroke-miterlimit:10;}
	.st6{fill:#D6D6D6;}
	.st7{fill:#FFFFFF;}
	.st8{fill:#E13934;}
	.st9{fill:none;stroke:#E13934;stroke-width:3.9274;stroke-miterlimit:10;}
	.st10{fill:#FFA39B;}
	.st11{fill:none;stroke:#E13934;stroke-width:4.9432;stroke-miterlimit:10;}
	.st12{fill:none;stroke:#E13934;stroke-width:4.5368;stroke-miterlimit:10;}
	.st13{fill:none;stroke:#FFA39B;stroke-width:9.0419;stroke-miterlimit:10;}
	.st14{fill:#FFFFFF;stroke:#E13934;stroke-width:5.7373;stroke-miterlimit:10;}
	.st15{fill:none;stroke:#E13934;stroke-width:5.7373;stroke-miterlimit:10;}
	.st16{fill:none;stroke:#E13934;stroke-width:4.4443;stroke-linecap:round;stroke-linejoin:round;stroke-miterlimit:10;}
	.st17{fill:none;stroke:#FFA39B;stroke-width:11.2135;stroke-miterlimit:10;}
	.st18{fill:none;stroke:#FFA39B;stroke-width:35.7248;stroke-miterlimit:10;}
	.st19{fill:none;stroke:#E13934;stroke-width:5.7325;stroke-miterlimit:10;}
	.st20{fill:none;stroke:#D6D6D6;stroke-width:7.5131;stroke-miterlimit:10;}
	.st21{clip-path:url(#SVGID_10_);}
	.st22{fill:#FFFFFF;stroke:#D6D6D6;stroke-width:4.3031;stroke-miterlimit:10;}
	.st23{fill:none;stroke:#D6D6D6;stroke-width:4.3031;stroke-miterlimit:10;}
	.st24{fill:none;stroke:#D6D6D6;stroke-width:2.1516;stroke-miterlimit:10;}
	.st25{fill:none;stroke:#E13934;stroke-width:9.2724;stroke-miterlimit:10;}
	.st26{fill:none;stroke:#E13934;stroke-width:4;stroke-miterlimit:10;}
	.st27{fill:#EBEAED;}
	.st28{fill:#A3A3A3;}
	.st29{clip-path:url(#SVGID_12_);}
	.st30{clip-path:url(#SVGID_14_);}
	.st31{clip-path:url(#SVGID_16_);}
	.st32{clip-path:url(#SVGID_18_);}
	.st33{clip-path:url(#SVGID_20_);}
	.st34{fill:none;stroke:#D5D5D5;stroke-width:9.9063;stroke-miterlimit:10;}
	.st35{fill:none;stroke:#FFA29A;stroke-width:7.7049;stroke-miterlimit:10;}
	.st36{fill:#E03934;stroke:#E03934;stroke-width:8.3372;stroke-miterlimit:10;}
	.st37{fill:none;stroke:#E03934;stroke-width:7.4108;stroke-linecap:round;stroke-linejoin:round;stroke-miterlimit:10;}
	.st38{fill:#FFFFFF;stroke:#FFA29A;stroke-width:4.578;stroke-miterlimit:10;}
	.st39{fill:none;stroke:#FFA29A;stroke-width:4.578;stroke-miterlimit:10;}
	.st40{fill:none;stroke:#FFA29A;stroke-width:2.289;stroke-miterlimit:10;}
	.st41{fill:none;stroke:#E03934;stroke-width:6.2269;stroke-miterlimit:10;}
	.st42{fill:#D5D5D5;}
	.st43{fill:none;stroke:#D5D5D5;stroke-width:4.154;stroke-miterlimit:10;}
	.st44{fill:none;stroke:#D5D5D5;stroke-width:15.5776;stroke-miterlimit:10;}
	.st45{fill:none;stroke:#E03934;stroke-width:4.5261;stroke-miterlimit:10;}
	.st46{fill:#FFA29A;}
	.st47{fill:#FFFFFF;stroke:#E03934;stroke-width:7.7273;stroke-miterlimit:10;}
	.st48{fill:none;stroke:#E03934;stroke-width:7.7273;stroke-miterlimit:10;}
	.st49{fill:none;stroke:#FFFFFF;stroke-width:3.4195;stroke-miterlimit:10;}
	.st50{fill:#FFFFFF;stroke:#FFA29A;stroke-width:5.3893;stroke-miterlimit:10;}
	.st51{fill:none;stroke:#FFA29A;stroke-width:5.3893;stroke-miterlimit:10;}
	.st52{fill:none;stroke:#FFA29A;stroke-width:2.6946;stroke-miterlimit:10;}
	.st53{fill:none;stroke:#E03934;stroke-width:6.7608;stroke-miterlimit:10;}
	.st54{fill:none;stroke:#D5D5D5;stroke-width:7;stroke-miterlimit:10;}
</style>
<g>
	<g>
		<rect x="81.2" y="53.2" class="st38" width="178.8" height="134.8"/>
		<line class="st39" x1="81.2" y1="70.2" x2="260" y2="70.2"/>
		<rect x="89.7" y="59.2" class="st40" width="5.3" height="5.3"/>
		<rect x="101.2" y="59.2" class="st40" width="5.3" height="5.3"/>
		<rect x="112.6" y="59.2" class="st40" width="5.3" height="5.3"/>
	</g>
	<g>
		<rect x="64.6" y="69.8" class="st38" width="178.8" height="134.8"/>
		<line class="st39" x1="64.6" y1="86.9" x2="243.4" y2="86.9"/>
		<rect x="73.1" y="75.8" class="st40" width="5.3" height="5.3"/>
		<rect x="84.5" y="75.8" class="st40" width="5.3" height="5.3"/>
		<rect x="96" y="75.8" class="st40" width="5.3" height="5.3"/>
	</g>
	<circle class="st41" cx="101" cy="126.9" r="17.4"/>
	<circle class="st41" cx="204.5" cy="126.9" r="17.4"/>
	<line class="st41" x1="83.6" y1="161.1" x2="118.3" y2="161.1"/>
	<line class="st41" x1="83.6" y1="172.4" x2="118.3" y2="172.4"/>
	<line class="st41" x1="83.6" y1="183.6" x2="118.3" y2="183.6"/>
	<line class="st41" x1="187.1" y1="161.1" x2="221.9" y2="161.1"/>
	<line class="st41" x1="187.1" y1="172.4" x2="213.6" y2="172.4"/>
	<line class="st41" x1="187.1" y1="183.6" x2="218.8" y2="183.6"/>
	<line class="st41" x1="158" y1="132.5" x2="158" y2="144.3"/>
	<line class="st41" x1="168.4" y1="124.6" x2="168.4" y2="144.3"/>
	<line class="st41" x1="147.7" y1="109.5" x2="147.7" y2="144.3"/>
	<line class="st41" x1="137.3" y1="120.8" x2="137.3" y2="144.3"/>
	<g>
		<path class="st42" d="M64.6,240.1c-19.6,0-35.5-15.9-35.5-35.5s15.9-35.5,35.5-35.5s35.5,15.9,35.5,35.5S84.2,240.1,64.6,240.1z"
			/>
		<path class="st7" d="M64.6,171.2c18.4,0,33.4,15,33.4,33.4S83,238,64.6,238s-33.4-15-33.4-33.4S46.2,171.2,64.6,171.2 M64.6,167.1
			c-20.7,0-37.5,16.8-37.5,37.5c0,20.7,16.8,37.5,37.5,37.5s37.5-16.8,37.5-37.5C102.2,183.9,85.3,167.1,64.6,167.1L64.6,167.1z"/>
	</g>
	<g>
		<circle class="st7" cx="64.6" cy="204.6" r="22.9"/>
	</g>
	<line class="st43" x1="83.6" y1="223.6" x2="103.1" y2="243.1"/>
	<line class="st44" x1="98.4" y1="238.4" x2="118" y2="258"/>
	<circle class="st41" cx="152.7" cy="172.9" r="17.4"/>
	<polyline class="st45" points="53.5,205.4 61.4,213.4 75.7,197.9 	"/>
</g>
</svg>
