<?xml version="1.0" encoding="utf-8"?>
<!-- Generator: Adobe Illustrator 22.0.1, SVG Export Plug-In . SVG Version: 6.00 Build 0)  -->
<svg version="1.1" id="Layer_1" xmlns="http://www.w3.org/2000/svg" xmlns:xlink="http://www.w3.org/1999/xlink" x="0px" y="0px"
	 viewBox="0 0 300 300" style="enable-background:new 0 0 300 300;" xml:space="preserve">
<style type="text/css">
	.st0{clip-path:url(#SVGID_4_);}
	.st1{clip-path:url(#SVGID_8_);}
	.st2{fill:#FFFFFF;stroke:#FFA39B;stroke-width:4.0008;stroke-miterlimit:10;}
	.st3{fill:none;stroke:#FFA39B;stroke-width:4.0008;stroke-miterlimit:10;}
	.st4{fill:none;stroke:#FFA39B;stroke-width:2.0004;stroke-miterlimit:10;}
	.st5{fill:none;stroke:#E13934;stroke-width:3.9642;stroke-miterlimit:10;}
	.st6{fill:#D6D6D6;}
	.st7{fill:#FFFFFF;}
	.st8{fill:#E13934;}
	.st9{fill:none;stroke:#E13934;stroke-width:3.9274;stroke-miterlimit:10;}
	.st10{fill:#FFA39B;}
	.st11{fill:none;stroke:#E13934;stroke-width:4.9432;stroke-miterlimit:10;}
	.st12{fill:none;stroke:#E13934;stroke-width:4.5368;stroke-miterlimit:10;}
	.st13{fill:none;stroke:#FFA39B;stroke-width:9.0419;stroke-miterlimit:10;}
	.st14{fill:#FFFFFF;stroke:#E13934;stroke-width:5.7373;stroke-miterlimit:10;}
	.st15{fill:none;stroke:#E13934;stroke-width:5.7373;stroke-miterlimit:10;}
	.st16{fill:none;stroke:#E13934;stroke-width:4.4443;stroke-linecap:round;stroke-linejoin:round;stroke-miterlimit:10;}
	.st17{fill:none;stroke:#FFA39B;stroke-width:11.2135;stroke-miterlimit:10;}
	.st18{fill:none;stroke:#FFA39B;stroke-width:35.7248;stroke-miterlimit:10;}
	.st19{fill:none;stroke:#E13934;stroke-width:5.7325;stroke-miterlimit:10;}
	.st20{fill:none;stroke:#D6D6D6;stroke-width:7.5131;stroke-miterlimit:10;}
	.st21{clip-path:url(#SVGID_10_);}
	.st22{fill:#FFFFFF;stroke:#D6D6D6;stroke-width:4.3031;stroke-miterlimit:10;}
	.st23{fill:none;stroke:#D6D6D6;stroke-width:4.3031;stroke-miterlimit:10;}
	.st24{fill:none;stroke:#D6D6D6;stroke-width:2.1516;stroke-miterlimit:10;}
	.st25{fill:none;stroke:#E13934;stroke-width:9.2724;stroke-miterlimit:10;}
	.st26{fill:none;stroke:#E13934;stroke-width:4;stroke-miterlimit:10;}
	.st27{fill:#EBEAED;}
	.st28{fill:#A3A3A3;}
	.st29{clip-path:url(#SVGID_12_);}
	.st30{clip-path:url(#SVGID_14_);}
	.st31{clip-path:url(#SVGID_16_);}
	.st32{clip-path:url(#SVGID_18_);}
	.st33{clip-path:url(#SVGID_20_);}
	.st34{fill:none;stroke:#D5D5D5;stroke-width:9.9063;stroke-miterlimit:10;}
	.st35{fill:none;stroke:#FFA29A;stroke-width:7.7049;stroke-miterlimit:10;}
	.st36{fill:#E03934;stroke:#E03934;stroke-width:8.3372;stroke-miterlimit:10;}
	.st37{fill:none;stroke:#E03934;stroke-width:7.4108;stroke-linecap:round;stroke-linejoin:round;stroke-miterlimit:10;}
	.st38{fill:#FFFFFF;stroke:#FFA29A;stroke-width:4.578;stroke-miterlimit:10;}
	.st39{fill:none;stroke:#FFA29A;stroke-width:4.578;stroke-miterlimit:10;}
	.st40{fill:none;stroke:#FFA29A;stroke-width:2.289;stroke-miterlimit:10;}
	.st41{fill:none;stroke:#E03934;stroke-width:6.2269;stroke-miterlimit:10;}
	.st42{fill:#D5D5D5;}
	.st43{fill:none;stroke:#D5D5D5;stroke-width:4.154;stroke-miterlimit:10;}
	.st44{fill:none;stroke:#D5D5D5;stroke-width:15.5776;stroke-miterlimit:10;}
	.st45{fill:none;stroke:#E03934;stroke-width:4.5261;stroke-miterlimit:10;}
	.st46{fill:#FFA29A;}
	.st47{fill:#FFFFFF;stroke:#E03934;stroke-width:7.7273;stroke-miterlimit:10;}
	.st48{fill:none;stroke:#E03934;stroke-width:7.7273;stroke-miterlimit:10;}
	.st49{fill:none;stroke:#FFFFFF;stroke-width:3.4195;stroke-miterlimit:10;}
	.st50{fill:#FFFFFF;stroke:#FFA29A;stroke-width:5.3893;stroke-miterlimit:10;}
	.st51{fill:none;stroke:#FFA29A;stroke-width:5.3893;stroke-miterlimit:10;}
	.st52{fill:none;stroke:#FFA29A;stroke-width:2.6946;stroke-miterlimit:10;}
	.st53{fill:none;stroke:#E03934;stroke-width:6.7608;stroke-miterlimit:10;}
	.st54{fill:none;stroke:#D5D5D5;stroke-width:7;stroke-miterlimit:10;}
</style>
<g>
	<path class="st46" d="M145.1,171.9c-4.7-4.7-7.3-11.1-7.3-17.7v-26.9c0-19.3-15.4-34.9-34.5-35.4v0h0c-0.1,0-0.3,0-0.4,0
		c-0.1,0-0.3,0-0.4,0v0c-19.1,0.5-34.5,16.1-34.5,35.4v26.9c0,6.6-2.6,13-7.3,17.7l-25.4,25.4h48.4c0,10.9,8.8,19.7,19.7,19.7
		s19.7-8.8,19.7-19.7h47.6L145.1,171.9z"/>
	<rect x="149" y="174.8" class="st47" width="85.1" height="66"/>
	<polyline class="st48" points="149,174.8 191.5,215.3 234.1,174.8 	"/>
	<g>
		<polygon class="st42" points="175.9,49.7 168,49.7 156.3,49.7 166.1,122.5 168,122.5 175.9,122.5 177.8,122.5 187.6,49.7 		"/>
	</g>
	<g>
		<rect x="162.7" y="132.7" class="st42" width="18.4" height="18.4"/>
	</g>
	<polygon class="st42" points="251.2,117 200,117 200,152 210.3,152 206.2,166.1 222.4,152 251.2,152 	"/>
	<path class="st49" d="M241.2,134.7c0,0-7.1,9.4-16,9.4c-8.8,0-16-9.4-16-9.4s7.1-9.4,16-9.4C234,125.2,241.2,134.7,241.2,134.7z"/>
	<circle class="st7" cx="225.2" cy="134.7" r="5.9"/>
</g>
<path class="st54" d="M104.4,74.7c-28.3,0-51.2,22.9-51.2,51.2"/>
</svg>
