<?xml version="1.0" encoding="utf-8"?>
<!-- Generator: Adobe Illustrator 22.0.1, SVG Export Plug-In . SVG Version: 6.00 Build 0)  -->
<svg version="1.1" id="Layer_1" xmlns="http://www.w3.org/2000/svg" xmlns:xlink="http://www.w3.org/1999/xlink" x="0px" y="0px"
	 viewBox="0 0 300 300" style="enable-background:new 0 0 300 300;" xml:space="preserve">
<style type="text/css">
	.st0{clip-path:url(#SVGID_4_);}
	.st1{clip-path:url(#SVGID_8_);}
	.st2{fill:#FFFFFF;stroke:#FFA39B;stroke-width:4.0008;stroke-miterlimit:10;}
	.st3{fill:none;stroke:#FFA39B;stroke-width:4.0008;stroke-miterlimit:10;}
	.st4{fill:none;stroke:#FFA39B;stroke-width:2.0004;stroke-miterlimit:10;}
	.st5{fill:none;stroke:#E13934;stroke-width:3.9642;stroke-miterlimit:10;}
	.st6{fill:#D6D6D6;}
	.st7{fill:#FFFFFF;}
	.st8{fill:#E13934;}
	.st9{fill:none;stroke:#E13934;stroke-width:3.9274;stroke-miterlimit:10;}
	.st10{fill:#FFA39B;}
	.st11{fill:none;stroke:#E13934;stroke-width:4.9432;stroke-miterlimit:10;}
	.st12{fill:none;stroke:#E13934;stroke-width:4.5368;stroke-miterlimit:10;}
	.st13{fill:none;stroke:#FFA39B;stroke-width:9.0419;stroke-miterlimit:10;}
	.st14{fill:#FFFFFF;stroke:#E13934;stroke-width:5.7373;stroke-miterlimit:10;}
	.st15{fill:none;stroke:#E13934;stroke-width:5.7373;stroke-miterlimit:10;}
	.st16{fill:none;stroke:#E13934;stroke-width:4.4443;stroke-linecap:round;stroke-linejoin:round;stroke-miterlimit:10;}
	.st17{fill:none;stroke:#FFA39B;stroke-width:11.2135;stroke-miterlimit:10;}
	.st18{fill:none;stroke:#FFA39B;stroke-width:35.7248;stroke-miterlimit:10;}
	.st19{fill:none;stroke:#E13934;stroke-width:5.7325;stroke-miterlimit:10;}
	.st20{fill:none;stroke:#D6D6D6;stroke-width:7.5131;stroke-miterlimit:10;}
	.st21{clip-path:url(#SVGID_10_);}
	.st22{fill:#FFFFFF;stroke:#D6D6D6;stroke-width:4.3031;stroke-miterlimit:10;}
	.st23{fill:none;stroke:#D6D6D6;stroke-width:4.3031;stroke-miterlimit:10;}
	.st24{fill:none;stroke:#D6D6D6;stroke-width:2.1516;stroke-miterlimit:10;}
	.st25{fill:none;stroke:#E13934;stroke-width:9.2724;stroke-miterlimit:10;}
	.st26{fill:none;stroke:#E13934;stroke-width:4;stroke-miterlimit:10;}
	.st27{fill:#EBEAED;}
	.st28{fill:#A3A3A3;}
	.st29{clip-path:url(#SVGID_12_);}
	.st30{clip-path:url(#SVGID_14_);}
	.st31{clip-path:url(#SVGID_16_);}
	.st32{clip-path:url(#SVGID_18_);}
	.st33{clip-path:url(#SVGID_20_);}
	.st34{fill:none;stroke:#D5D5D5;stroke-width:9.9063;stroke-miterlimit:10;}
	.st35{fill:none;stroke:#FFA29A;stroke-width:7.7049;stroke-miterlimit:10;}
	.st36{fill:#E03934;stroke:#E03934;stroke-width:8.3372;stroke-miterlimit:10;}
	.st37{fill:none;stroke:#E03934;stroke-width:7.4108;stroke-linecap:round;stroke-linejoin:round;stroke-miterlimit:10;}
	.st38{fill:#FFFFFF;stroke:#FFA29A;stroke-width:4.578;stroke-miterlimit:10;}
	.st39{fill:none;stroke:#FFA29A;stroke-width:4.578;stroke-miterlimit:10;}
	.st40{fill:none;stroke:#FFA29A;stroke-width:2.289;stroke-miterlimit:10;}
	.st41{fill:none;stroke:#E03934;stroke-width:6.2269;stroke-miterlimit:10;}
	.st42{fill:#D5D5D5;}
	.st43{fill:none;stroke:#D5D5D5;stroke-width:4.154;stroke-miterlimit:10;}
	.st44{fill:none;stroke:#D5D5D5;stroke-width:15.5776;stroke-miterlimit:10;}
	.st45{fill:none;stroke:#E03934;stroke-width:4.5261;stroke-miterlimit:10;}
	.st46{fill:#FFA29A;}
	.st47{fill:#FFFFFF;stroke:#E03934;stroke-width:7.7273;stroke-miterlimit:10;}
	.st48{fill:none;stroke:#E03934;stroke-width:7.7273;stroke-miterlimit:10;}
	.st49{fill:none;stroke:#FFFFFF;stroke-width:3.4195;stroke-miterlimit:10;}
	.st50{fill:#FFFFFF;stroke:#FFA29A;stroke-width:5.3893;stroke-miterlimit:10;}
	.st51{fill:none;stroke:#FFA29A;stroke-width:5.3893;stroke-miterlimit:10;}
	.st52{fill:none;stroke:#FFA29A;stroke-width:2.6946;stroke-miterlimit:10;}
	.st53{fill:none;stroke:#E03934;stroke-width:6.7608;stroke-miterlimit:10;}
	.st54{fill:none;stroke:#D5D5D5;stroke-width:7;stroke-miterlimit:10;}
</style>
<g>
	<g>
		<rect x="49.7" y="50.2" class="st50" width="203.1" height="197.3"/>
		<line class="st51" x1="49.7" y1="70.3" x2="252.8" y2="70.3"/>
		<rect x="59.7" y="57.2" class="st52" width="6.3" height="6.3"/>
		<rect x="73.1" y="57.2" class="st52" width="6.3" height="6.3"/>
		<rect x="86.6" y="57.2" class="st52" width="6.3" height="6.3"/>
	</g>
	<g>
		<g>
			<g>
				<polygon class="st42" points="209.1,172 205.6,168.6 213.7,160.5 213.7,143.2 183.7,113.2 118,113.2 96.5,134.7 93.1,131.2 
					115.9,108.3 185.8,108.3 218.6,141.2 218.6,162.5 				"/>
			</g>
		</g>
		<g>
			<g>
				<polygon class="st42" points="195.5,142.2 178.5,125.2 143.4,125.2 143.4,120.3 180.5,120.3 199,138.8 				"/>
			</g>
		</g>
		<g>
			<g>
				<polygon class="st42" points="160.1,145.1 142.2,145.1 121.6,124.5 125.1,121 144.2,140.1 160.1,140.1 				"/>
			</g>
		</g>
		<g>
			<g>
				<polygon class="st42" points="126.9,158.9 122,158.9 122,146 110.5,134.4 113.9,130.9 126.9,143.9 				"/>
			</g>
		</g>
		<g>
			<g>
				<polygon class="st42" points="132.6,185.9 100.7,185.9 83.5,168.7 83.5,145.8 88.4,145.8 88.4,166.7 102.7,181 132.6,181 				
					"/>
			</g>
		</g>
		<g>
			<g>
				<polygon class="st42" points="136.2,174.3 111,174.3 97.3,160.6 100.8,157.1 113.1,169.4 134.2,169.4 146.9,156.6 150.4,160.1 
									"/>
			</g>
		</g>
		<g>
			<g>
				<polygon class="st42" points="153.8,177.5 150.3,174 173.8,150.6 173.8,134.9 178.7,134.9 178.7,152.6 				"/>
			</g>
		</g>
		<g>
			<g>
				<polygon class="st42" points="167.7,225.8 162.8,225.8 162.8,210.3 144.3,191.8 147.8,188.3 167.7,208.3 				"/>
			</g>
		</g>
		<g>
			<g>
				<polygon class="st42" points="172.1,177.7 168.6,174.2 189,153.8 203.5,153.8 203.5,158.8 191,158.8 				"/>
			</g>
		</g>
		<g>
			<g>
				<polygon class="st42" points="171.4,194.4 167.9,190.9 181.4,177.4 195.9,177.4 195.9,182.3 183.5,182.3 				"/>
			</g>
		</g>
		<g>
			<g>
				<polygon class="st42" points="182.9,234.7 178,234.7 178,201.9 193.4,201.9 203.6,191.6 203.6,186.3 208.6,186.3 208.6,193.7 
					195.5,206.8 182.9,206.8 				"/>
			</g>
		</g>
		<g>
			<g>
				<circle class="st42" cx="96.1" cy="131.6" r="4.6"/>
			</g>
		</g>
		<g>
			<g>
				<circle class="st42" cx="85.9" cy="147.1" r="4.6"/>
			</g>
		</g>
		<g>
			<g>
				<circle class="st42" cx="99.1" cy="158.3" r="4.6"/>
			</g>
		</g>
		<g>
			<g>
				<circle class="st42" cx="112.2" cy="132.7" r="4.6"/>
			</g>
		</g>
		<g>
			<g>
				<circle class="st42" cx="123" cy="122.7" r="4.6"/>
			</g>
		</g>
		<g>
			<g>
				<circle class="st42" cx="143.4" cy="122.7" r="4.6"/>
			</g>
		</g>
		<g>
			<g>
				<circle class="st42" cx="197.3" cy="140.5" r="4.6"/>
			</g>
		</g>
		<g>
			<g>
				<circle class="st42" cx="176.2" cy="134.9" r="4.6"/>
			</g>
		</g>
		<g>
			<g>
				<circle class="st42" cx="161.6" cy="142.6" r="4.6"/>
			</g>
		</g>
		<g>
			<g>
				<circle class="st42" cx="148.7" cy="158.9" r="4.6"/>
			</g>
		</g>
		<g>
			<g>
				<circle class="st42" cx="152.1" cy="176" r="4.6"/>
			</g>
		</g>
		<g>
			<g>
				<circle class="st42" cx="132.6" cy="183.5" r="4.6"/>
			</g>
		</g>
		<g>
			<g>
				<circle class="st42" cx="124.5" cy="158.9" r="4.6"/>
			</g>
		</g>
		<g>
			<g>
				<circle class="st42" cx="203.8" cy="156.3" r="4.6"/>
			</g>
		</g>
		<g>
			<g>
				<circle class="st42" cx="170.3" cy="176" r="4.6"/>
			</g>
		</g>
		<g>
			<g>
				<circle class="st42" cx="169.7" cy="192.7" r="4.6"/>
			</g>
		</g>
		<g>
			<g>
				<circle class="st42" cx="165.3" cy="225.8" r="4.6"/>
			</g>
		</g>
		<g>
			<g>
				<circle class="st42" cx="180.5" cy="234.7" r="4.6"/>
			</g>
		</g>
		<g>
			<g>
				<circle class="st42" cx="146" cy="190" r="4.6"/>
			</g>
		</g>
		<g>
			<g>
				<circle class="st42" cx="207.8" cy="170.3" r="4.6"/>
			</g>
		</g>
		<g>
			<g>
				<circle class="st42" cx="206.1" cy="186.3" r="4.6"/>
			</g>
		</g>
		<g>
			<g>
				<circle class="st42" cx="195.9" cy="179.7" r="4.6"/>
			</g>
		</g>
	</g>
	<polyline class="st53" points="210.7,83.2 238.2,83.2 238.2,110.7 	"/>
	<line class="st53" x1="204.1" y1="117.3" x2="238.4" y2="83"/>
	<polyline class="st53" points="92.1,233.5 64.6,233.5 64.6,206 	"/>
	<line class="st53" x1="98.7" y1="199.4" x2="64.4" y2="233.7"/>
	<polyline class="st53" points="92.1,233.5 64.6,233.5 64.6,206 	"/>
	<polyline class="st53" points="92.1,83.2 64.6,83.2 64.6,110.7 	"/>
	<line class="st53" x1="98.7" y1="117.3" x2="64.4" y2="83"/>
	<polyline class="st53" points="210.7,233.5 238.2,233.5 238.2,206 	"/>
	<polyline class="st53" points="210.7,233.5 238.2,233.5 238.2,206 	"/>
	<line class="st53" x1="208.7" y1="204.1" x2="238.4" y2="233.7"/>
</g>
</svg>
