<?xml version="1.0" encoding="utf-8"?>
<!-- Generator: Adobe Illustrator 22.0.1, SVG Export Plug-In . SVG Version: 6.00 Build 0)  -->
<svg version="1.1" id="Layer_1" xmlns="http://www.w3.org/2000/svg" xmlns:xlink="http://www.w3.org/1999/xlink" x="0px" y="0px"
	 viewBox="0 0 300 300" style="enable-background:new 0 0 300 300;" xml:space="preserve">
<style type="text/css">
	.st0{clip-path:url(#SVGID_4_);}
	.st1{clip-path:url(#SVGID_8_);}
	.st2{fill:#FFFFFF;stroke:#FFA39B;stroke-width:4.0008;stroke-miterlimit:10;}
	.st3{fill:none;stroke:#FFA39B;stroke-width:4.0008;stroke-miterlimit:10;}
	.st4{fill:none;stroke:#FFA39B;stroke-width:2.0004;stroke-miterlimit:10;}
	.st5{fill:none;stroke:#E13934;stroke-width:3.9642;stroke-miterlimit:10;}
	.st6{fill:#D6D6D6;}
	.st7{fill:#FFFFFF;}
	.st8{fill:#E13934;}
	.st9{fill:none;stroke:#E13934;stroke-width:3.9274;stroke-miterlimit:10;}
	.st10{fill:#FFA39B;}
	.st11{fill:none;stroke:#E13934;stroke-width:4.9432;stroke-miterlimit:10;}
	.st12{fill:none;stroke:#E13934;stroke-width:4.5368;stroke-miterlimit:10;}
	.st13{fill:none;stroke:#FFA39B;stroke-width:9.0419;stroke-miterlimit:10;}
	.st14{fill:#FFFFFF;stroke:#E13934;stroke-width:5.7373;stroke-miterlimit:10;}
	.st15{fill:none;stroke:#E13934;stroke-width:5.7373;stroke-miterlimit:10;}
	.st16{fill:none;stroke:#E13934;stroke-width:4.4443;stroke-linecap:round;stroke-linejoin:round;stroke-miterlimit:10;}
	.st17{fill:none;stroke:#FFA39B;stroke-width:11.2135;stroke-miterlimit:10;}
	.st18{fill:none;stroke:#FFA39B;stroke-width:35.7248;stroke-miterlimit:10;}
	.st19{fill:none;stroke:#E13934;stroke-width:5.7325;stroke-miterlimit:10;}
	.st20{fill:none;stroke:#D6D6D6;stroke-width:7.5131;stroke-miterlimit:10;}
	.st21{clip-path:url(#SVGID_10_);}
	.st22{fill:#FFFFFF;stroke:#D6D6D6;stroke-width:4.3031;stroke-miterlimit:10;}
	.st23{fill:none;stroke:#D6D6D6;stroke-width:4.3031;stroke-miterlimit:10;}
	.st24{fill:none;stroke:#D6D6D6;stroke-width:2.1516;stroke-miterlimit:10;}
	.st25{fill:none;stroke:#E13934;stroke-width:9.2724;stroke-miterlimit:10;}
	.st26{fill:none;stroke:#E13934;stroke-width:4;stroke-miterlimit:10;}
	.st27{fill:#EBEAED;}
	.st28{fill:#A3A3A3;}
	.st29{clip-path:url(#SVGID_12_);}
	.st30{clip-path:url(#SVGID_14_);}
	.st31{clip-path:url(#SVGID_16_);}
	.st32{clip-path:url(#SVGID_18_);}
	.st33{clip-path:url(#SVGID_20_);}
	.st34{fill:none;stroke:#D5D5D5;stroke-width:9.9063;stroke-miterlimit:10;}
	.st35{fill:none;stroke:#FFA29A;stroke-width:7.7049;stroke-miterlimit:10;}
	.st36{fill:#E03934;stroke:#E03934;stroke-width:8.3372;stroke-miterlimit:10;}
	.st37{fill:none;stroke:#E03934;stroke-width:7.4108;stroke-linecap:round;stroke-linejoin:round;stroke-miterlimit:10;}
	.st38{fill:#FFFFFF;stroke:#FFA29A;stroke-width:4.578;stroke-miterlimit:10;}
	.st39{fill:none;stroke:#FFA29A;stroke-width:4.578;stroke-miterlimit:10;}
	.st40{fill:none;stroke:#FFA29A;stroke-width:2.289;stroke-miterlimit:10;}
	.st41{fill:none;stroke:#E03934;stroke-width:6.2269;stroke-miterlimit:10;}
	.st42{fill:#D5D5D5;}
	.st43{fill:none;stroke:#D5D5D5;stroke-width:4.154;stroke-miterlimit:10;}
	.st44{fill:none;stroke:#D5D5D5;stroke-width:15.5776;stroke-miterlimit:10;}
	.st45{fill:none;stroke:#E03934;stroke-width:4.5261;stroke-miterlimit:10;}
	.st46{fill:#FFA29A;}
	.st47{fill:#FFFFFF;stroke:#E03934;stroke-width:7.7273;stroke-miterlimit:10;}
	.st48{fill:none;stroke:#E03934;stroke-width:7.7273;stroke-miterlimit:10;}
	.st49{fill:none;stroke:#FFFFFF;stroke-width:3.4195;stroke-miterlimit:10;}
	.st50{fill:#FFFFFF;stroke:#FFA29A;stroke-width:5.3893;stroke-miterlimit:10;}
	.st51{fill:none;stroke:#FFA29A;stroke-width:5.3893;stroke-miterlimit:10;}
	.st52{fill:none;stroke:#FFA29A;stroke-width:2.6946;stroke-miterlimit:10;}
	.st53{fill:none;stroke:#E03934;stroke-width:6.7608;stroke-miterlimit:10;}
	.st54{fill:none;stroke:#D5D5D5;stroke-width:7;stroke-miterlimit:10;}
</style>
<g>
	<polyline class="st34" points="205.4,245.1 54.3,245.1 54.3,55.7 243.7,55.7 243.7,164.9 	"/>
	<g>
		<polyline class="st35" points="69.3,205.3 69.3,230.1 94.1,230.1 		"/>
		<line class="st35" x1="117.8" y1="181.6" x2="69.1" y2="230.3"/>
		<polyline class="st35" points="203.9,70.7 228.7,70.7 228.7,95.5 		"/>
		<line class="st35" x1="180.2" y1="119.2" x2="228.9" y2="70.5"/>
		<rect x="116.8" y="119.9" class="st36" width="62.7" height="62.7"/>
		<g>
			<g>
				<path class="st7" d="M124.6,143c0-1.2,0.2-2.2,0.6-3.1c0.4-0.9,0.9-1.6,1.6-2.2c0.6-0.6,1.4-1,2.2-1.3c0.8-0.3,1.6-0.4,2.5-0.4
					c0.8,0,1.7,0.1,2.5,0.4c0.8,0.3,1.6,0.7,2.2,1.3c0.6,0.6,1.2,1.3,1.6,2.2c0.4,0.9,0.6,1.9,0.6,3.1v1.5h-4.1V143
					c0-1-0.3-1.7-0.8-2.2c-0.6-0.5-1.2-0.7-2-0.7s-1.4,0.2-2,0.7s-0.8,1.2-0.8,2.2v15.2c0,1,0.3,1.7,0.8,2.2s1.2,0.7,2,0.7
					s1.4-0.2,2-0.7c0.6-0.5,0.8-1.2,0.8-2.2v-5.4H131v-3.6h7.4v9c0,1.2-0.2,2.2-0.6,3.1c-0.4,0.9-0.9,1.6-1.6,2.1
					c-0.7,0.6-1.4,1-2.2,1.3c-0.8,0.3-1.6,0.4-2.5,0.4c-0.8,0-1.7-0.1-2.5-0.4c-0.8-0.3-1.6-0.7-2.2-1.3c-0.7-0.6-1.2-1.3-1.6-2.1
					c-0.4-0.9-0.6-1.9-0.6-3.1V143z"/>
				<path class="st7" d="M142,164.9v-28.7h6.2c1.1,0,2.1,0.1,3,0.4c0.9,0.3,1.6,0.8,2.3,1.6c0.7,0.8,1.2,1.6,1.5,2.6
					s0.4,2.4,0.4,4.1c0,1.3-0.1,2.4-0.2,3.3c-0.1,0.9-0.5,1.7-0.9,2.5c-0.6,0.9-1.3,1.7-2.3,2.2c-0.9,0.5-2.2,0.8-3.7,0.8h-2.1v11.2
					H142z M146.2,140.1v9.8h2c0.8,0,1.5-0.1,1.9-0.4c0.5-0.2,0.8-0.6,1-1c0.2-0.4,0.3-0.9,0.4-1.5c0-0.6,0.1-1.3,0.1-2
					c0-0.7,0-1.3,0-1.9c0-0.6-0.1-1.1-0.4-1.6c-0.2-0.5-0.5-0.8-1-1.1c-0.4-0.2-1-0.4-1.9-0.4H146.2z"/>
				<path class="st7" d="M171.8,136.2v22.3c0,0.9-0.2,1.8-0.5,2.6c-0.3,0.8-0.8,1.5-1.4,2.1c-0.6,0.6-1.3,1.1-2.1,1.5
					c-0.8,0.3-1.7,0.5-2.6,0.5c-0.9,0-1.8-0.2-2.6-0.5c-0.8-0.3-1.5-0.8-2.1-1.5c-0.6-0.6-1.1-1.3-1.5-2.1c-0.4-0.8-0.5-1.7-0.5-2.6
					v-22.3h4.1v21.9c0,1,0.2,1.8,0.7,2.3c0.5,0.5,1.1,0.7,1.8,0.7c0.7,0,1.3-0.2,1.8-0.7c0.5-0.5,0.7-1.2,0.7-2.3v-21.9H171.8z"/>
			</g>
		</g>
		<g>
			<line class="st37" x1="136.2" y1="107.4" x2="136.2" y2="121.6"/>
			<line class="st37" x1="148.2" y1="107.4" x2="148.2" y2="121.6"/>
			<line class="st37" x1="160.2" y1="107.4" x2="160.2" y2="121.6"/>
		</g>
		<g>
			<line class="st37" x1="136.2" y1="180" x2="136.2" y2="194.2"/>
			<line class="st37" x1="148.2" y1="180" x2="148.2" y2="194.2"/>
			<line class="st37" x1="160.2" y1="180" x2="160.2" y2="194.2"/>
		</g>
		<g>
			<line class="st37" x1="191.6" y1="138.8" x2="177.4" y2="138.8"/>
			<line class="st37" x1="191.6" y1="150.8" x2="177.4" y2="150.8"/>
			<line class="st37" x1="191.6" y1="162.8" x2="177.4" y2="162.8"/>
		</g>
		<g>
			<line class="st37" x1="119" y1="138.8" x2="104.8" y2="138.8"/>
			<line class="st37" x1="119" y1="150.8" x2="104.8" y2="150.8"/>
			<line class="st37" x1="119" y1="162.8" x2="104.8" y2="162.8"/>
		</g>
	</g>
</g>
<g>
	<path class="st42" d="M221.9,198.4c-2.7,0-4.9-0.7-6.5-2.2c-1.6-1.5-2.4-3.4-2.4-5.8v-6.8c0-2.7,0.8-4.7,2.4-6.3
		c1.6-1.5,3.8-2.3,6.5-2.3c2.7,0,4.9,0.8,6.5,2.3c1.6,1.5,2.4,3.6,2.4,6.3v6.8c0,2.4-0.8,4.3-2.4,5.8
		C226.8,197.6,224.7,198.4,221.9,198.4z M214.3,250.2l25.5-74.5h6.9l-25.5,74.5H214.3z M221.9,192.1c0.7,0,1.3-0.3,1.8-0.8
		s0.8-1.2,0.8-1.9V184c0-0.8-0.3-1.4-0.8-1.9c-0.5-0.5-1.1-0.8-1.8-0.8c-0.7,0-1.3,0.3-1.8,0.8c-0.5,0.5-0.8,1.2-0.8,1.9v5.3
		c0,0.8,0.3,1.4,0.8,1.9C220.6,191.8,221.2,192.1,221.9,192.1z M239.1,250.8c-2.7,0-4.9-0.7-6.5-2.2c-1.6-1.5-2.4-3.4-2.4-5.8v-6.8
		c0-2.7,0.8-4.7,2.4-6.3c1.6-1.5,3.8-2.3,6.5-2.3c2.7,0,4.9,0.8,6.5,2.3c1.6,1.5,2.4,3.6,2.4,6.3v6.8c0,2.4-0.8,4.3-2.4,5.8
		C244,250.1,241.8,250.8,239.1,250.8z M236.5,241.8c0,0.8,0.3,1.4,0.8,1.9c0.5,0.5,1.1,0.8,1.8,0.8s1.3-0.3,1.8-0.8
		c0.5-0.5,0.8-1.2,0.8-1.9v-5.3c0-0.8-0.3-1.4-0.8-1.9c-0.5-0.5-1.1-0.8-1.8-0.8s-1.3,0.3-1.8,0.8c-0.5,0.5-0.8,1.2-0.8,1.9V241.8z"
		/>
</g>
</svg>
